<?xml version="1.0" standalone="no"?>
<svg xmlns:xlink="http://www.w3.org/1999/xlink" id="wave" style="transform:rotate(180deg); transition: 0.3s" viewBox="0 0 1440 490" version="1.1" xmlns="http://www.w3.org/2000/svg"><defs><linearGradient id="sw-gradient-0" x1="0" x2="0" y1="1" y2="0"><stop stop-color="rgba(20.909, 0, 0, 1)" offset="0%"/><stop stop-color="rgba(70.998, 0, 0, 1)" offset="100%"/></linearGradient></defs><path style="transform:translate(0, 0px); opacity:1" fill="url(#sw-gradient-0)" d="M0,196L26.7,220.5C53.3,245,107,294,160,334.8C213.3,376,267,408,320,367.5C373.3,327,427,212,480,187.8C533.3,163,587,229,640,277.7C693.3,327,747,359,800,383.8C853.3,408,907,425,960,392C1013.3,359,1067,278,1120,277.7C1173.3,278,1227,359,1280,326.7C1333.3,294,1387,147,1440,98C1493.3,49,1547,98,1600,114.3C1653.3,131,1707,114,1760,114.3C1813.3,114,1867,131,1920,130.7C1973.3,131,2027,114,2080,130.7C2133.3,147,2187,196,2240,236.8C2293.3,278,2347,310,2400,334.8C2453.3,359,2507,376,2560,318.5C2613.3,261,2667,131,2720,122.5C2773.3,114,2827,229,2880,277.7C2933.3,327,2987,310,3040,302.2C3093.3,294,3147,294,3200,310.3C3253.3,327,3307,359,3360,326.7C3413.3,294,3467,196,3520,130.7C3573.3,65,3627,33,3680,32.7C3733.3,33,3787,65,3813,81.7L3840,98L3840,490L3813.3,490C3786.7,490,3733,490,3680,490C3626.7,490,3573,490,3520,490C3466.7,490,3413,490,3360,490C3306.7,490,3253,490,3200,490C3146.7,490,3093,490,3040,490C2986.7,490,2933,490,2880,490C2826.7,490,2773,490,2720,490C2666.7,490,2613,490,2560,490C2506.7,490,2453,490,2400,490C2346.7,490,2293,490,2240,490C2186.7,490,2133,490,2080,490C2026.7,490,1973,490,1920,490C1866.7,490,1813,490,1760,490C1706.7,490,1653,490,1600,490C1546.7,490,1493,490,1440,490C1386.7,490,1333,490,1280,490C1226.7,490,1173,490,1120,490C1066.7,490,1013,490,960,490C906.7,490,853,490,800,490C746.7,490,693,490,640,490C586.7,490,533,490,480,490C426.7,490,373,490,320,490C266.7,490,213,490,160,490C106.7,490,53,490,27,490L0,490Z"/></svg>